<?xml version="1.0" encoding="UTF-8" standalone="no"?>
<!-- Created with Inkscape (http://www.inkscape.org/) -->

<svg
   width="150.737mm"
   height="152.03069mm"
   viewBox="0 0 150.737 152.03069"
   version="1.1"
   id="svg1"
   xml:space="preserve"
   xmlns="http://www.w3.org/2000/svg"
   xmlns:svg="http://www.w3.org/2000/svg"><g
     id="layer1"
     transform="translate(-29.908728,-31.712179)"><path
       style="fill:#000000"
       d="m 102.13451,183.35828 c -3.212697,-0.86511 -5.690707,-2.94595 -7.227167,-6.06883 -0.876,-1.78048 -0.90894,-1.95787 -0.9089,-4.89479 5e-5,-3.03309 0.005,-3.05635 1.02685,-4.96917 1.21177,-2.26801 3.52846,-4.55061 5.308547,-5.23043 l 1.20518,-0.46027 v -18.03481 -18.03482 l -2.096897,-2.12239 -2.0969,-2.12239 -5.59616,5.52353 -5.59617,5.52353 0.70341,0.92221 0.7034,0.92221 -0.66436,0.52258 c -0.36539,0.28742 -0.92203,0.93952 -1.23698,1.44912 l -0.57263,0.92653 -1.09991,-0.81208 -1.09992,-0.81207 -6.42414,6.56193 c -3.53327,3.60907 -6.66085,6.81006 -6.95016,7.11332 -0.48687,0.51034 -0.4973,0.62015 -0.14012,1.475 0.21225,0.50799 0.52456,1.71981 0.69402,2.69293 0.82064,4.71242 -1.69914,9.47156 -6.18992,11.69103 -5.8517,2.89206 -12.64978,0.57494 -15.5349,-5.29508 -0.88054,-1.79151 -0.90841,-1.9445 -0.89193,-4.89479 0.0193,-3.45162 0.3141,-4.37861 2.17816,-6.84889 2.82685,-3.74617 7.9895,-5.44584 12.48576,-4.11059 l 1.41552,0.42036 6.18632,-6.17505 c 3.40248,-3.39628 6.53217,-6.60208 6.95487,-7.12401 l 0.76855,-0.94896 -1.57797,-1.68946 c -0.86788,-0.9292 -1.54708,-1.75687 -1.50934,-1.83926 0.0377,-0.0824 0.62291,-0.65606 1.30038,-1.27484 l 1.23177,-1.12503 1.7854,1.70809 1.7854,1.70808 5.5408,-5.46775 c 3.04744,-3.00726 5.66058,-5.69076 5.80697,-5.96333 0.22366,-0.41645 -0.0221,-0.7861 -1.53942,-2.3151 l -1.80558,-1.81952 h -18.06045 -18.06045 l -0.69281,1.36719 c -1.45457,2.87047 -4.21309,5.07132 -7.39515,5.90014 -6.35956,1.65646 -12.39659,-1.93252 -14.03979,-8.34657 -0.98281,-3.83628 0.52821,-8.74153 3.49523,-11.346598 1.37244,-1.20502 3.78298,-2.32509 5.73578,-2.66516 2.19014,-0.38139 4.93896,0.003 7.00309,0.97961 1.94533,0.92029 4.23236,3.258378 5.20578,5.321998 l 0.77625,1.64564 h 17.90051 17.9005 l 0.87512,-0.99219 c 0.48132,-0.5457 1.42318,-1.56314 2.09304,-2.26098 l 1.21791,-1.26879 -6.19097,-6.072738 -6.19097,-6.07274 -1.34965,1.24633 c -0.74231,0.68548 -1.43044,1.36304 -1.52917,1.50569 -0.15346,0.22171 -2.57761,-1.72103 -2.80957,-2.25162 -0.0433,-0.099 0.57462,-0.88555 1.37307,-1.74797 l 1.45174,-1.56805 -6.13557,-6.07486 c -3.37457,-3.34117 -6.50267,-6.402139 -6.95134,-6.802151 l -0.81577,-0.727294 -1.69777,0.400188 c -2.24523,0.529229 -3.72299,0.509912 -5.83705,-0.0763 -3.3304,-0.923493 -5.86622,-3.010008 -7.42034,-6.105589 -0.84578,-1.684673 -0.8758,-1.853324 -0.8758,-4.919477 0,-3.03811 0.0365,-3.249149 0.84742,-4.894792 1.11837,-2.269648 2.23267,-3.56886 4.09114,-4.770046 5.74203,-3.711258 13.53802,-1.665728 16.49411,4.327766 1.55722,3.157268 1.77255,6.274021 0.64094,9.27709 -0.39073,1.036921 -0.42415,1.384822 -0.16814,1.750139 0.55706,0.794915 13.49151,13.362376 13.69236,13.303876 0.10568,-0.0308 0.56419,-0.42802 1.01892,-0.88274 l 0.82677,-0.82678 1.17763,1.27962 c 0.64769,0.70379 1.18235,1.40769 1.18813,1.56422 0.006,0.15654 -0.28715,0.56425 -0.65095,0.90602 -0.36381,0.34178 -0.66146,0.75052 -0.66146,0.90833 0,0.1578 2.55445,2.83929 5.67655,5.95886 l 5.67655,5.67194 0.6073,-0.51487 c 0.33402,-0.28319 1.28863,-1.22926 2.121357,-2.10238 l 1.51406,-1.5875 0.007,-18.291351 0.007,-18.291346 -1.48137,-0.724767 c -1.958907,-0.958407 -4.122447,-3.197214 -5.194857,-5.375581 -0.82452,-1.674827 -0.86439,-1.896459 -0.86439,-4.804102 0,-2.941343 0.0317,-3.111442 0.90355,-4.849104 2.32039,-4.624698 7.026567,-7.102719 11.974967,-6.305372 3.9274,0.632831 6.90324,2.859291 8.70009,6.50922 1.52545,3.098628 1.34419,7.30775 -0.44627,10.362941 -0.89483,1.526911 -2.96046,3.38965 -4.71081,4.2481 l -1.47257,0.722219 v 18.507196 18.507197 l 2.06536,2.06259 2.06536,2.06259 5.73985,-5.7443 c 3.15691,-3.15936 5.73984,-5.84665 5.73984,-5.97174 0,-0.1251 -0.35161,-0.62791 -0.78135,-1.11737 l -0.78136,-0.88991 1.32853,-1.36395 1.32852,-1.36394 1.00143,0.97787 1.00142,0.97786 6.93165,-6.95584 6.93164,-6.955843 -0.57521,-1.788907 c -0.46477,-1.445435 -0.55362,-2.233834 -0.46276,-4.106219 0.0968,-1.993981 0.24663,-2.594186 1.0741,-4.301686 2.19841,-4.536433 6.02364,-6.805737 11.06569,-6.564674 2.01585,0.09638 2.57559,0.238386 4.30115,1.091207 6.80525,3.363335 8.56936,11.91513 3.68702,17.873381 -1.32267,1.614151 -3.43008,2.880297 -5.80502,3.487705 -2.45435,0.627718 -3.51974,0.643869 -5.9538,0.09025 l -1.87426,-0.426292 -6.83419,6.842438 -6.83418,6.84243 1.58923,1.66174 c 1.49095,1.55896 1.75097,2.17472 0.91834,2.17472 -0.19462,0 -0.72868,0.4269 -1.18679,0.94867 -0.94651,1.07801 -0.86025,1.10473 -2.99685,-0.92829 l -1.26142,-1.20028 -6.1213,6.12131 -6.1213,6.121298 2.08105,2.27385 2.08106,2.27386 h 17.91058 17.91059 l 0.7875,-1.68286 c 1.43649,-3.06971 4.10072,-5.200628 7.66191,-6.128208 7.08367,-1.84506 14.10043,3.749908 14.08691,11.232528 -0.01,5.41446 -3.27454,9.61978 -8.561,11.0274 -5.17552,1.37808 -10.8335,-1.18586 -13.28269,-6.01911 l -0.65167,-1.286 -18.05335,0.0125 -18.05336,0.0125 -1.98301,1.85519 -1.98301,1.85518 6.03101,5.98354 6.03101,5.98353 1.80934,-1.79547 1.80934,-1.79548 1.08797,1.08798 c 0.59839,0.59838 1.23361,1.08797 1.41161,1.08797 0.178,0 -0.47685,0.80666 -1.45521,1.79257 -0.97836,0.98592 -1.77884,1.9095 -1.77884,2.0524 0,0.1429 3.13531,3.39345 6.96737,7.22346 l 6.96737,6.96365 1.53752,-0.44697 c 1.11761,-0.3249 2.20527,-0.41777 3.98247,-0.34004 2.16832,0.0948 2.66812,0.21724 4.4175,1.08182 5.01565,2.47887 7.53958,7.94281 6.14422,13.30137 -0.84684,3.25208 -2.90606,5.66911 -6.14938,7.21788 -1.98349,0.94716 -2.12171,0.97365 -5.08166,0.97365 -2.87972,0 -3.13929,-0.0457 -4.84585,-0.85405 -2.2764,-1.0782 -4.26106,-3.07446 -5.4425,-5.47432 -1.10846,-2.25159 -1.38277,-5.23368 -0.69563,-7.56226 0.23618,-0.80036 0.49376,-1.70949 0.57239,-2.02027 0.11739,-0.46398 -1.1249,-1.8255 -6.94402,-7.6105 l -7.08698,-7.04543 -0.99236,0.79748 c -0.54579,0.43861 -1.03179,0.79747 -1.07999,0.79747 -0.0482,0 -0.31701,-0.42592 -0.59735,-0.94648 -0.28035,-0.52057 -0.84858,-1.12172 -1.26275,-1.3359 l -0.75303,-0.3894 0.78989,-0.99732 0.78989,-0.99732 -5.61082,-5.60627 -5.61082,-5.60627 -2.04628,2.05836 -2.04628,2.05835 v 18.13525 18.13524 l 0.99218,0.47259 c 2.65308,1.26369 4.88789,3.64129 5.98962,6.3723 0.41317,1.02417 0.53652,1.95028 0.54625,4.10104 0.0116,2.56951 -0.0488,2.90762 -0.80469,4.50265 -2.34476,4.94777 -8.21078,7.63504 -13.53621,6.20103 z m 5.22007,-7.19836 c 1.34103,-0.67376 2.12194,-1.98301 2.12194,-3.55759 0,-2.9011 -2.33712,-4.86027 -5.16503,-4.32975 -1.0784,0.20231 -2.70611,1.52939 -3.08296,2.51356 -0.76585,2.00004 0.13276,4.49915 1.93748,5.38835 1.15977,0.57142 3.0352,0.5649 4.18857,-0.0146 z M 61.391073,158.49065 c 0.87686,-0.63615 1.78337,-2.39406 1.78337,-3.45832 0,-1.03269 -1.01326,-2.98752 -1.87256,-3.61262 -1.60191,-1.16531 -3.93136,-1.03894 -5.36992,0.29131 -2.15407,1.99188 -1.93683,5.19088 0.45959,6.76792 0.94762,0.62361 1.30806,0.70757 2.68826,0.62616 1.04586,-0.0617 1.84057,-0.27296 2.31126,-0.61445 z m 93.124877,-0.004 c 2.96925,-2.1969 1.98582,-6.81382 -1.66054,-7.79568 -2.90403,-0.78197 -5.74704,2.05526 -5.16552,5.15503 0.20954,1.11691 1.29546,2.46231 2.38706,2.95746 1.12369,0.5097 3.5566,0.33606 4.439,-0.31681 z m -45.32653,-43.64328 -0.0444,-2.91041 3.01003,-0.0747 3.01003,-0.0747 1.65365,-1.63746 c 0.90951,-0.90061 1.65365,-1.71095 1.65365,-1.80076 0,-0.0898 -0.75138,-0.95645 -1.66972,-1.92587 l -1.66971,-1.76259 h -2.9605 -2.96049 l -0.0453,-2.44739 c -0.0249,-1.34607 -0.0718,-2.625988 -0.10416,-2.844268 -0.0324,-0.21828 -0.0716,-0.57739 -0.087,-0.79801 -0.0278,-0.39579 -3.52397,-4.22907 -3.8572,-4.22907 -0.36599,0 -3.57991,3.51615 -3.59128,3.92899 -0.007,0.24015 -0.0364,1.746318 -0.0661,3.347048 l -0.0541,2.91041 -3.109187,0.0439 -3.10918,0.0439 -1.71293,1.80814 -1.71293,1.80815 1.76442,1.77804 1.76441,1.77805 3.0577,0.0741 3.057697,0.0741 v 3.10014 3.10015 l 1.8456,1.86141 1.84561,1.86141 2.06795,-2.05114 2.06796,-2.05114 z m -65.076047,-3.03482 c 0.93235,-0.66389 1.85154,-2.37538 1.85154,-3.44747 0,-1.10726 -0.93302,-2.79677 -1.98951,-3.60259 -0.83475,-0.63669 -1.25248,-0.76303 -2.52294,-0.76303 -2.4227,0 -3.94238,1.44062 -4.14909,3.93322 -0.15569,1.87749 0.61858,3.35654 2.17068,4.14653 1.41271,0.71904 3.4168,0.60385 4.63932,-0.26666 z m 127.468707,0.0854 c 1.51774,-1.13315 2.24468,-3.0113 1.82019,-4.70264 -0.21425,-0.85364 -1.60247,-2.44518 -2.56855,-2.94477 -2.41986,-1.25135 -5.6732,0.60783 -5.99056,3.42342 -0.23117,2.05096 0.55418,3.50408 2.44482,4.5236 1.05464,0.56871 3.34514,0.40889 4.2941,-0.29961 z M 61.041483,64.845325 c 1.34531,-0.695687 2.00067,-1.913947 2.00067,-3.719064 0,-1.821214 -0.54268,-2.748092 -2.20289,-3.762488 -1.79378,-1.096001 -4.34702,-0.496357 -5.70973,1.340963 -0.82466,1.111873 -0.78187,3.696062 0.0812,4.906221 1.2553,1.760049 3.78041,2.294618 5.83071,1.234368 z m 93.394107,-0.08585 c 1.73327,-1.294074 2.34791,-3.602592 1.45831,-5.477277 -0.61557,-1.297207 -2.49526,-2.515096 -3.8818,-2.515096 -4.55009,0 -6.06295,5.993053 -2.05433,8.138013 0.96907,0.518533 1.43611,0.609334 2.50979,0.487946 0.72554,-0.08203 1.61115,-0.367141 1.96803,-0.633586 z M 107.35458,46.778673 c 2.77072,-1.392058 2.87306,-5.518858 0.17816,-7.184397 -0.47233,-0.291914 -1.32953,-0.602312 -1.90489,-0.689774 -1.34225,-0.204036 -3.17643,0.690389 -4.02054,1.960585 -0.77662,1.168636 -0.81324,3.241751 -0.0785,4.446702 1.05591,1.731758 3.88219,2.44339 5.8258,1.466884 z M 80.846323,169.48267 c -1.90576,-0.57449 -3.37276,-2.5322 -3.37276,-4.50099 0,-1.0405 0.74418,-2.86177 1.3865,-3.39325 0.23301,-0.1928 0.97992,-0.56171 1.65981,-0.81979 1.22899,-0.46651 1.24296,-0.48582 2.40786,-3.32687 l 1.17169,-2.85763 -0.40832,-1.19836 c -0.97173,-2.85187 -0.16602,-4.92452 2.42281,-6.23252 2.8427,-1.43628 6.42988,0.90121 6.42887,4.1892 -2.3e-4,0.74376 -0.2055,1.7443 -0.46302,2.25686 -0.50713,1.00938 -1.91289,2.07952 -3.02538,2.30309 -0.39088,0.0786 -0.76816,0.27829 -0.8384,0.44386 -0.0702,0.16557 -0.60049,1.44927 -1.17832,2.85266 l -1.05061,2.55162 0.54228,1.54942 c 0.92261,2.63611 0.1237,4.68516 -2.25926,5.79461 -1.43602,0.66857 -2.20435,0.75566 -3.42375,0.38809 z m 45.695827,-0.17813 c -1.9087,-1.00624 -2.77813,-2.39503 -2.77813,-4.43768 0,-0.65458 0.1872,-1.58271 0.41601,-2.06251 0.40752,-0.85459 0.38988,-0.93433 -0.86526,-3.91158 -1.19389,-2.83199 -1.33501,-3.04523 -2.06965,-3.1274 -1.06407,-0.11903 -2.48235,-1.24057 -2.93313,-2.31944 -0.49705,-1.1896 -0.46541,-3.12965 0.0694,-4.25673 0.96844,-2.04085 4.01419,-3.0402 6.06355,-1.98953 2.52348,1.29375 3.3173,3.39817 2.32562,6.16527 l -0.43562,1.21555 1.17659,2.86395 c 1.10988,2.70155 1.23266,2.88335 2.1655,3.20631 1.39712,0.4837 2.45376,1.29802 2.93439,2.26146 0.52006,1.04249 0.53324,3.18613 0.0256,4.16776 -1.10799,2.14261 -4.14664,3.25168 -6.09492,2.22457 z M 45.574123,137.48375 c -2.64949,-0.63541 -4.0661,-3.76265 -2.93296,-6.47465 0.86539,-2.07116 3.81644,-3.11986 6.09742,-2.16681 1.01163,0.42269 1.06257,0.41505 3.48151,-0.52221 2.26012,-0.87573 2.46895,-1.01773 2.63254,-1.7901 0.4068,-1.92071 2.56449,-3.60542 4.61765,-3.60542 1.30815,0 2.98752,0.83501 3.77663,1.8778 0.83862,1.10821 1.33768,2.91814 1.10838,4.01969 -0.72961,3.50493 -4.17942,5.15687 -7.22727,3.46078 l -1.22962,-0.68427 -2.31164,0.97387 c -2.16248,0.91102 -2.32866,1.03708 -2.57547,1.95364 -0.34838,1.29379 -1.49412,2.35153 -3.05651,2.82174 -0.69773,0.20998 -1.33898,0.3696 -1.42499,0.35471 -0.086,-0.0149 -0.51607,-0.11335 -0.95567,-0.21877 z M 161.70826,136.9647 c -1.04252,-0.63572 -1.87883,-1.69865 -2.08885,-2.65489 -0.14457,-0.65824 -0.46631,-0.86853 -2.6525,-1.73366 l -2.48796,-0.98456 -0.85423,0.60826 c -1.26626,0.90166 -3.4955,1.00667 -4.81709,0.22691 -1.61732,-0.95424 -2.40744,-2.42944 -2.41522,-4.50936 -0.006,-1.4886 0.10275,-1.90009 0.74358,-2.8248 2.35688,-3.40099 7.33677,-2.62146 8.71674,1.36449 0.31417,0.90747 0.51951,1.0546 2.68592,1.92446 2.28552,0.91768 2.36873,0.9309 3.24141,0.51475 3.37382,-1.60887 7.21466,1.31701 6.61111,5.03622 -0.19849,1.22317 -1.34362,2.70038 -2.45249,3.1637 -1.26213,0.52735 -3.25136,0.46551 -4.23042,-0.13152 z M 58.281323,92.957092 c -1.33534,-0.28456 -2.9531,-1.82499 -3.36682,-3.20586 -0.16884,-0.56354 -0.49279,-1.08283 -0.71988,-1.15397 -0.22709,-0.0711 -1.2176,-0.47546 -2.20115,-0.8985 -2.14262,-0.92157 -2.14882,-0.92194 -3.17798,-0.18911 -0.55662,0.39635 -1.19801,0.57867 -2.02522,0.57569 -2.42166,-0.009 -4.25803,-1.72972 -4.46131,-4.18103 -0.22063,-2.66042 1.42003,-4.64822 3.99738,-4.84317 1.98521,-0.15016 3.52187,0.69363 4.46375,2.45108 0.69458,1.29601 0.7704,1.34873 3.01106,2.09355 1.83367,0.60954 2.3852,0.70078 2.72706,0.45113 0.88467,-0.64604 2.16344,-1.09605 3.11462,-1.09605 3.2306,0 5.61828,3.5737 4.43375,6.6361 -0.45499,1.17631 -1.4615,2.47077 -2.25693,2.90264 -0.8554,0.46442 -2.50498,0.67771 -3.53833,0.4575 z m 90.416407,-0.62298 c -1.52422,-0.91352 -2.28427,-2.39992 -2.29988,-4.49779 -0.01,-1.33107 0.11592,-1.80005 0.73315,-2.73275 1.38544,-2.09354 3.99518,-2.69533 6.42905,-1.48248 l 1.32492,0.66024 2.19871,-0.76954 c 2.01424,-0.70497 2.23729,-0.85471 2.65841,-1.78472 0.54982,-1.2142 1.14927,-1.78292 2.45384,-2.328 1.32768,-0.55474 2.4612,-0.51096 3.82163,0.14761 3.37998,1.63622 3.20615,6.61364 -0.28637,8.19966 -1.46067,0.66332 -2.18962,0.63113 -3.7922,-0.16748 l -1.35185,-0.67365 -2.07354,0.85317 c -2.53689,1.04383 -2.63418,1.11454 -2.8214,2.05063 -0.20186,1.00929 -1.41226,2.40214 -2.47243,2.84511 -1.39643,0.58346 -3.23123,0.45362 -4.52204,-0.32001 z M 86.366543,68.560638 c -1.16622,-0.425715 -2.17487,-1.289132 -2.71203,-2.32154 -0.47763,-0.917996 -0.46315,-3.326152 0.0251,-4.180327 0.56906,-0.995472 0.50103,-1.363456 -0.83362,-4.508611 -1.08792,-2.56375 -1.30545,-2.899722 -1.8774,-2.899722 -1.65753,0 -3.19824,-1.809593 -3.41345,-4.009142 -0.2761,-2.822052 1.71711,-4.973339 4.61626,-4.982338 1.65188,-0.0051 2.58564,0.421562 3.70001,1.690759 1.15358,1.31386 1.36746,2.958977 0.61936,4.763923 l -0.56613,1.365885 0.95584,2.371394 c 1.38445,3.434782 1.5725,3.736172 2.43923,3.909519 0.94263,0.188525 2.31545,1.309951 2.83607,2.31671 0.63592,1.229736 0.50116,3.395497 -0.28309,4.54963 -1.17917,1.735303 -3.66164,2.607186 -5.50619,1.93386 z m 33.672587,-0.488892 c -1.43709,-0.968456 -2.09594,-2.167274 -2.09594,-3.813684 0,-2.403102 1.20371,-4.093679 3.19887,-4.492711 0.44845,-0.08969 0.8843,-0.354501 0.96856,-0.588471 0.0843,-0.23397 0.66539,-1.635432 1.29138,-3.114359 1.10684,-2.614917 1.12668,-2.71201 0.72057,-3.526073 -0.60833,-1.21943 -0.39586,-3.862644 0.40038,-4.98086 1.15973,-1.628687 3.79281,-2.367466 5.77229,-1.619567 1.98675,0.75065 3.35316,3.514791 2.70701,5.476082 -0.60185,1.826822 -1.80848,2.922213 -3.68198,3.342543 -0.55638,0.124826 -0.85431,0.62298 -1.87542,3.135803 l -1.21396,2.987402 0.50902,1.185772 c 0.65942,1.536153 0.52953,3.55048 -0.30448,4.721737 -1.32518,1.861036 -4.57401,2.514423 -6.3963,1.286386 z"
       id="path1" /></g></svg>
